<mxfile host="app.diagrams.net" modified="2023-09-08T11:59:39.639Z" agent="Mozilla/5.0 (Windows NT 10.0; Win64; x64) AppleWebKit/537.36 (KHTML, like Gecko) Chrome/113.0.0.0 Safari/537.36" version="21.6.8" etag="p0TU99gjt16iXE6Y_L8k" type="github">
  <diagram name="Page-1" id="oYeaNkNZ3P0D9APWDApV">
    <mxGraphModel>
      <root>
        <mxCell id="0" />
        <mxCell id="1" parent="0" />
      </root>
    </mxGraphModel>
  </diagram>
</mxfile>
